<svg xmlns="http://www.w3.org/2000/svg" xmlns:xlink="http://www.w3.org/1999/xlink" version="1.1" class="marks" width="2293.4410094975647" height="1930.5338850574178" viewBox="0 0 1146.7205047487823 965.2669425287089"><rect width="1146.7205047487823" height="965.2669425287089" fill="#ffffff"/><g fill="none" stroke-miterlimit="10" transform="translate(47,32)"><g class="mark-group role-frame root" role="graphics-object" aria-roledescription="group mark container"><g transform="translate(0,0)"><path class="background" aria-hidden="true" d="M0,0h1084.7205047487823v896.2669425287089h-1084.7205047487823Z"/><g><g class="mark-group role-axis" role="graphics-symbol" aria-roledescription="axis" aria-label="X-axis titled 'Axis 1 (57.34 %)' for a linear scale with values from −0.6 to 0.8"><g transform="translate(0.5,896.7669425287089)"><path class="background" aria-hidden="true" d="M0,0h0v0h0Z" pointer-events="none"/><g><g class="mark-rule role-axis-tick" pointer-events="none"><line transform="translate(55,0)" x2="0" y2="5" stroke="#888" stroke-width="1" opacity="1"/><line transform="translate(135,0)" x2="0" y2="5" stroke="#888" stroke-width="1" opacity="1"/><line transform="translate(215,0)" x2="0" y2="5" stroke="#888" stroke-width="1" opacity="1"/><line transform="translate(295,0)" x2="0" y2="5" stroke="#888" stroke-width="1" opacity="1"/><line transform="translate(375,0)" x2="0" y2="5" stroke="#888" stroke-width="1" opacity="1"/><line transform="translate(455,0)" x2="0" y2="5" stroke="#888" stroke-width="1" opacity="1"/><line transform="translate(535,0)" x2="0" y2="5" stroke="#888" stroke-width="1" opacity="1"/><line transform="translate(615,0)" x2="0" y2="5" stroke="#888" stroke-width="1" opacity="1"/><line transform="translate(695,0)" x2="0" y2="5" stroke="#888" stroke-width="1" opacity="1"/><line transform="translate(775,0)" x2="0" y2="5" stroke="#888" stroke-width="1" opacity="1"/><line transform="translate(855,0)" x2="0" y2="5" stroke="#888" stroke-width="1" opacity="1"/><line transform="translate(935,0)" x2="0" y2="5" stroke="#888" stroke-width="1" opacity="1"/><line transform="translate(1015,0)" x2="0" y2="5" stroke="#888" stroke-width="1" opacity="1"/></g><g class="mark-text role-axis-label" pointer-events="none"><text text-anchor="middle" transform="translate(54.93010943092073,15)" font-family="sans-serif" font-size="10px" fill="#000000" opacity="1">−0.5</text><text text-anchor="middle" transform="translate(134.9301094309207,15)" font-family="sans-serif" font-size="10px" fill="#000000" opacity="1">−0.4</text><text text-anchor="middle" transform="translate(214.93010943092074,15)" font-family="sans-serif" font-size="10px" fill="#000000" opacity="1">−0.3</text><text text-anchor="middle" transform="translate(294.9301094309207,15)" font-family="sans-serif" font-size="10px" fill="#000000" opacity="1">−0.2</text><text text-anchor="middle" transform="translate(374.9301094309207,15)" font-family="sans-serif" font-size="10px" fill="#000000" opacity="1">−0.1</text><text text-anchor="middle" transform="translate(454.9301094309207,15)" font-family="sans-serif" font-size="10px" fill="#000000" opacity="1">0.0</text><text text-anchor="middle" transform="translate(534.9301094309207,15)" font-family="sans-serif" font-size="10px" fill="#000000" opacity="1">0.1</text><text text-anchor="middle" transform="translate(614.9301094309207,15)" font-family="sans-serif" font-size="10px" fill="#000000" opacity="1">0.2</text><text text-anchor="middle" transform="translate(694.9301094309208,15)" font-family="sans-serif" font-size="10px" fill="#000000" opacity="1">0.3</text><text text-anchor="middle" transform="translate(774.9301094309207,15)" font-family="sans-serif" font-size="10px" fill="#000000" opacity="1">0.4</text><text text-anchor="middle" transform="translate(854.9301094309207,15)" font-family="sans-serif" font-size="10px" fill="#000000" opacity="1">0.5</text><text text-anchor="middle" transform="translate(934.9301094309208,15)" font-family="sans-serif" font-size="10px" fill="#000000" opacity="1">0.6</text><text text-anchor="middle" transform="translate(1014.9301094309205,15)" font-family="sans-serif" font-size="10px" fill="#000000" opacity="1">0.7</text></g><g class="mark-rule role-axis-domain" pointer-events="none"><line transform="translate(0,0)" x2="1084.7205047487823" y2="0" stroke="#888" stroke-width="1" opacity="1"/></g><g class="mark-text role-axis-title" pointer-events="none"><text text-anchor="middle" transform="translate(542.3602523743912,30)" font-family="sans-serif" font-size="11px" font-weight="bold" fill="#000000" opacity="1">Axis 1 (57.34 %)</text></g></g><path class="foreground" aria-hidden="true" d="" pointer-events="none" display="none"/></g></g><g class="mark-group role-axis" role="graphics-symbol" aria-roledescription="axis" aria-label="Y-axis titled 'Axis 2 (10.03 %)' for a linear scale with values from −0.6 to 0.6"><g transform="translate(0.5,0.5)"><path class="background" aria-hidden="true" d="M0,0h0v0h0Z" pointer-events="none"/><g><g class="mark-rule role-axis-tick" pointer-events="none"><line transform="translate(0,847)" x2="-5" y2="0" stroke="#888" stroke-width="1" opacity="1"/><line transform="translate(0,767)" x2="-5" y2="0" stroke="#888" stroke-width="1" opacity="1"/><line transform="translate(0,687)" x2="-5" y2="0" stroke="#888" stroke-width="1" opacity="1"/><line transform="translate(0,607)" x2="-5" y2="0" stroke="#888" stroke-width="1" opacity="1"/><line transform="translate(0,527)" x2="-5" y2="0" stroke="#888" stroke-width="1" opacity="1"/><line transform="translate(0,447)" x2="-5" y2="0" stroke="#888" stroke-width="1" opacity="1"/><line transform="translate(0,367)" x2="-5" y2="0" stroke="#888" stroke-width="1" opacity="1"/><line transform="translate(0,287)" x2="-5" y2="0" stroke="#888" stroke-width="1" opacity="1"/><line transform="translate(0,207)" x2="-5" y2="0" stroke="#888" stroke-width="1" opacity="1"/><line transform="translate(0,127)" x2="-5" y2="0" stroke="#888" stroke-width="1" opacity="1"/><line transform="translate(0,47)" x2="-5" y2="0" stroke="#888" stroke-width="1" opacity="1"/></g><g class="mark-text role-axis-label" pointer-events="none"><text text-anchor="end" transform="translate(-7,849.5319678257378)" font-family="sans-serif" font-size="10px" fill="#000000" opacity="1">−0.5</text><text text-anchor="end" transform="translate(-7,769.5319678257376)" font-family="sans-serif" font-size="10px" fill="#000000" opacity="1">−0.4</text><text text-anchor="end" transform="translate(-7,689.5319678257376)" font-family="sans-serif" font-size="10px" fill="#000000" opacity="1">−0.3</text><text text-anchor="end" transform="translate(-7,609.5319678257376)" font-family="sans-serif" font-size="10px" fill="#000000" opacity="1">−0.2</text><text text-anchor="end" transform="translate(-7,529.5319678257376)" font-family="sans-serif" font-size="10px" fill="#000000" opacity="1">−0.1</text><text text-anchor="end" transform="translate(-7,449.5319678257377)" font-family="sans-serif" font-size="10px" fill="#000000" opacity="1">0.0</text><text text-anchor="end" transform="translate(-7,369.53196782573764)" font-family="sans-serif" font-size="10px" fill="#000000" opacity="1">0.1</text><text text-anchor="end" transform="translate(-7,289.5319678257377)" font-family="sans-serif" font-size="10px" fill="#000000" opacity="1">0.2</text><text text-anchor="end" transform="translate(-7,209.53196782573758)" font-family="sans-serif" font-size="10px" fill="#000000" opacity="1">0.3</text><text text-anchor="end" transform="translate(-7,129.53196782573764)" font-family="sans-serif" font-size="10px" fill="#000000" opacity="1">0.4</text><text text-anchor="end" transform="translate(-7,49.53196782573769)" font-family="sans-serif" font-size="10px" fill="#000000" opacity="1">0.5</text></g><g class="mark-rule role-axis-domain" pointer-events="none"><line transform="translate(0,896.2669425287089)" x2="0" y2="-896.2669425287089" stroke="#888" stroke-width="1" opacity="1"/></g><g class="mark-text role-axis-title" pointer-events="none"><text text-anchor="middle" transform="translate(-30.7412109375,448.13347126435445) rotate(-90) translate(0,-2)" font-family="sans-serif" font-size="11px" font-weight="bold" fill="#000000" opacity="1">Axis 2 (10.03 %)</text></g></g><path class="foreground" aria-hidden="true" d="" pointer-events="none" display="none"/></g></g><g class="mark-symbol role-mark" role="graphics-symbol" aria-roledescription="symbol mark container"><path transform="translate(23.011954449141836,548.8498656790778)" d="M10,0A10,10,0,1,1,-10,0A10,10,0,1,1,10,0" fill="rgb(242,115,4)" opacity="1"/><path transform="translate(35.9899216711816,539.312235576606)" d="M10,0A10,10,0,1,1,-10,0A10,10,0,1,1,10,0" fill="rgb(242,115,4)" opacity="1"/><path transform="translate(40.76554415909967,532.1775281085389)" d="M10,0A10,10,0,1,1,-10,0A10,10,0,1,1,10,0" fill="rgb(242,115,4)" opacity="1"/><path transform="translate(67.23399714106634,509.77663303285493)" d="M10,0A10,10,0,1,1,-10,0A10,10,0,1,1,10,0" fill="rgb(242,115,4)" opacity="1"/><path transform="translate(32.77241546786236,548.1845473629994)" d="M10,0A10,10,0,1,1,-10,0A10,10,0,1,1,10,0" fill="rgb(242,115,4)" opacity="1"/><path transform="translate(23.314360887549945,508.6025291124622)" d="M10,0A10,10,0,1,1,-10,0A10,10,0,1,1,10,0" fill="rgb(242,115,4)" opacity="1"/><path transform="translate(50.433541188968874,525.4003226074054)" d="M10,0A10,10,0,1,1,-10,0A10,10,0,1,1,10,0" fill="rgb(242,115,4)" opacity="1"/><path transform="translate(43.01784453428068,539.9380891817216)" d="M10,0A10,10,0,1,1,-10,0A10,10,0,1,1,10,0" fill="rgb(242,115,4)" opacity="1"/><path transform="translate(52.0030250005961,514.2846665378123)" d="M10,0A10,10,0,1,1,-10,0A10,10,0,1,1,10,0" fill="rgb(242,115,4)" opacity="1"/><path transform="translate(48.62334197578083,524.4633789119325)" d="M10,0A10,10,0,1,1,-10,0A10,10,0,1,1,10,0" fill="rgb(242,115,4)" opacity="1"/><path transform="translate(50.35684307890982,519.7549699664968)" d="M10,0A10,10,0,1,1,-10,0A10,10,0,1,1,10,0" fill="rgb(242,115,4)" opacity="1"/><path transform="translate(73.70284503597885,474.1224703503025)" d="M10,0A10,10,0,1,1,-10,0A10,10,0,1,1,10,0" fill="rgb(242,115,4)" opacity="1"/><path transform="translate(30.887694316843813,537.8593881796394)" d="M10,0A10,10,0,1,1,-10,0A10,10,0,1,1,10,0" fill="rgb(242,115,4)" opacity="1"/><path transform="translate(37.69794657892475,535.9892433236123)" d="M10,0A10,10,0,1,1,-10,0A10,10,0,1,1,10,0" fill="rgb(242,115,4)" opacity="1"/><path transform="translate(34.748572272463996,513.7775272733755)" d="M10,0A10,10,0,1,1,-10,0A10,10,0,1,1,10,0" fill="rgb(242,115,4)" opacity="1"/><path transform="translate(26.497388507961706,540.5531534225705)" d="M10,0A10,10,0,1,1,-10,0A10,10,0,1,1,10,0" fill="rgb(242,115,4)" opacity="1"/><path transform="translate(59.3129427766466,496.7452416243769)" d="M10,0A10,10,0,1,1,-10,0A10,10,0,1,1,10,0" fill="rgb(242,115,4)" opacity="1"/><path transform="translate(15.155020416417829,426.68647739905623)" d="M10,0A10,10,0,1,1,-10,0A10,10,0,1,1,10,0" fill="rgb(242,115,4)" opacity="1"/><path transform="translate(0,452.2761061983789)" d="M10,0A10,10,0,1,1,-10,0A10,10,0,1,1,10,0" fill="rgb(242,115,4)" opacity="1"/><path transform="translate(62.451083954632566,480.38311974189156)" d="M10,0A10,10,0,1,1,-10,0A10,10,0,1,1,10,0" fill="rgb(242,115,4)" opacity="1"/><path transform="translate(998.0436704035765,602.6901989122335)" d="M10,0A10,10,0,1,1,-10,0A10,10,0,1,1,10,0" fill="rgb(255,0,0)" opacity="1"/><path transform="translate(509.21197498138423,0)" d="M10,0A10,10,0,1,1,-10,0A10,10,0,1,1,10,0" fill="rgb(255,0,0)" opacity="1"/><path transform="translate(691.0246104643676,460.1216400573057)" d="M10,0A10,10,0,1,1,-10,0A10,10,0,1,1,10,0" fill="rgb(255,0,0)" opacity="1"/><path transform="translate(905.3801234023499,312.59860368296995)" d="M10,0A10,10,0,1,1,-10,0A10,10,0,1,1,10,0" fill="rgb(255,0,0)" opacity="1"/><path transform="translate(242.10635347682413,180.4376471413295)" d="M10,0A10,10,0,1,1,-10,0A10,10,0,1,1,10,0" fill="rgb(255,0,0)" opacity="1"/><path transform="translate(1059.8787838596425,604.8408869897062)" d="M10,0A10,10,0,1,1,-10,0A10,10,0,1,1,10,0" fill="rgb(255,0,0)" opacity="1"/><path transform="translate(958.023299157147,553.8079102624918)" d="M10,0A10,10,0,1,1,-10,0A10,10,0,1,1,10,0" fill="rgb(255,0,0)" opacity="1"/><path transform="translate(740.2833473404751,364.45269049680644)" d="M10,0A10,10,0,1,1,-10,0A10,10,0,1,1,10,0" fill="rgb(255,0,0)" opacity="1"/><path transform="translate(258.60226633755815,307.31567200182945)" d="M10,0A10,10,0,1,1,-10,0A10,10,0,1,1,10,0" fill="rgb(255,0,0)" opacity="1"/><path transform="translate(886.3399198373583,468.83195245252364)" d="M10,0A10,10,0,1,1,-10,0A10,10,0,1,1,10,0" fill="rgb(255,0,0)" opacity="1"/><path transform="translate(591.9199258913854,507.4101307976648)" d="M10,0A10,10,0,1,1,-10,0A10,10,0,1,1,10,0" fill="rgb(255,0,0)" opacity="1"/><path transform="translate(641.6383677643001,326.49650508807935)" d="M10,0A10,10,0,1,1,-10,0A10,10,0,1,1,10,0" fill="rgb(255,0,0)" opacity="1"/><path transform="translate(327.58478314247776,211.66612909965212)" d="M10,0A10,10,0,1,1,-10,0A10,10,0,1,1,10,0" fill="rgb(255,0,0)" opacity="1"/><path transform="translate(485.3638973891819,159.47561553160912)" d="M10,0A10,10,0,1,1,-10,0A10,10,0,1,1,10,0" fill="rgb(255,0,0)" opacity="1"/><path transform="translate(800.6257264500199,305.9461717662433)" d="M10,0A10,10,0,1,1,-10,0A10,10,0,1,1,10,0" fill="rgb(255,0,0)" opacity="1"/><path transform="translate(1056.8239850815191,506.2872676103704)" d="M10,0A10,10,0,1,1,-10,0A10,10,0,1,1,10,0" fill="rgb(0,0,255)" opacity="1"/><path transform="translate(1046.584197809343,379.95204842454757)" d="M10,0A10,10,0,1,1,-10,0A10,10,0,1,1,10,0" fill="rgb(0,0,255)" opacity="1"/><path transform="translate(817.1138313339192,231.7908393782073)" d="M10,0A10,10,0,1,1,-10,0A10,10,0,1,1,10,0" fill="rgb(0,0,255)" opacity="1"/><path transform="translate(1067.1372829988093,511.61778637137684)" d="M10,0A10,10,0,1,1,-10,0A10,10,0,1,1,10,0" fill="rgb(0,0,255)" opacity="1"/><path transform="translate(886.0933310252304,189.41254689931276)" d="M10,0A10,10,0,1,1,-10,0A10,10,0,1,1,10,0" fill="rgb(0,0,255)" opacity="1"/><path transform="translate(1084.7205047487823,896.2669425287089)" d="M10,0A10,10,0,1,1,-10,0A10,10,0,1,1,10,0" fill="rgb(0,0,255)" opacity="1"/><path transform="translate(1040.629240816752,749.4396268860717)" d="M10,0A10,10,0,1,1,-10,0A10,10,0,1,1,10,0" fill="rgb(0,0,255)" opacity="1"/><path transform="translate(1043.468758416779,776.5063044844698)" d="M10,0A10,10,0,1,1,-10,0A10,10,0,1,1,10,0" fill="rgb(0,0,255)" opacity="1"/><path transform="translate(652.5333830360083,286.8912599580382)" d="M10,0A10,10,0,1,1,-10,0A10,10,0,1,1,10,0" fill="rgb(0,0,255)" opacity="1"/><path transform="translate(716.0608604921155,271.9701631995554)" d="M10,0A10,10,0,1,1,-10,0A10,10,0,1,1,10,0" fill="rgb(0,0,255)" opacity="1"/><path transform="translate(611.616324750736,105.10648637171704)" d="M10,0A10,10,0,1,1,-10,0A10,10,0,1,1,10,0" fill="rgb(0,0,255)" opacity="1"/></g><g class="mark-group role-title"><g transform="translate(526.4896469056412,-27)"><path class="background" aria-hidden="true" d="M0,0h0v0h0Z" pointer-events="none"/><g><g class="mark-text role-title-text" role="graphics-symbol" aria-roledescription="title" aria-label="Title text 'Emperor PCoA'" pointer-events="none"><text text-anchor="middle" transform="translate(0,10)" font-family="sans-serif" font-size="13px" font-weight="bold" fill="#000000" opacity="1">Emperor PCoA</text></g></g><path class="foreground" aria-hidden="true" d="" pointer-events="none" display="none"/></g></g></g><path class="foreground" aria-hidden="true" d="" display="none"/></g></g></g></svg>