<svg xmlns="http://www.w3.org/2000/svg" xmlns:xlink="http://www.w3.org/1999/xlink" version="1.1" class="marks" width="2436.8724371589515" height="2223.0095203741694" viewBox="0 0 1218.4362185794757 1111.5047601870847"><rect width="1218.4362185794757" height="1111.5047601870847" fill="#ffffff"/><g fill="none" stroke-miterlimit="10" transform="translate(47,32)"><g class="mark-group role-frame root" role="graphics-object" aria-roledescription="group mark container"><g transform="translate(0,0)"><path class="background" aria-hidden="true" d="M0,0h1156.4362185794757v1042.5047601870847h-1156.4362185794757Z"/><g><g class="mark-group role-axis" role="graphics-symbol" aria-roledescription="axis" aria-label="X-axis titled 'Axis 1 (37.56 %)' for a linear scale with values from −0.9 to 0.6"><g transform="translate(0.5,1043.0047601870847)"><path class="background" aria-hidden="true" d="M0,0h0v0h0Z" pointer-events="none"/><g><g class="mark-rule role-axis-tick" pointer-events="none"><line transform="translate(66,0)" x2="0" y2="5" stroke="#888" stroke-width="1" opacity="1"/><line transform="translate(226,0)" x2="0" y2="5" stroke="#888" stroke-width="1" opacity="1"/><line transform="translate(386,0)" x2="0" y2="5" stroke="#888" stroke-width="1" opacity="1"/><line transform="translate(546,0)" x2="0" y2="5" stroke="#888" stroke-width="1" opacity="1"/><line transform="translate(706,0)" x2="0" y2="5" stroke="#888" stroke-width="1" opacity="1"/><line transform="translate(866,0)" x2="0" y2="5" stroke="#888" stroke-width="1" opacity="1"/><line transform="translate(1026,0)" x2="0" y2="5" stroke="#888" stroke-width="1" opacity="1"/></g><g class="mark-text role-axis-label" pointer-events="none"><text text-anchor="middle" transform="translate(65.75053503456125,15)" font-family="sans-serif" font-size="10px" fill="#000000" opacity="1">−0.8</text><text text-anchor="middle" transform="translate(225.75053503456132,15)" font-family="sans-serif" font-size="10px" fill="#000000" opacity="1">−0.6</text><text text-anchor="middle" transform="translate(385.7505350345613,15)" font-family="sans-serif" font-size="10px" fill="#000000" opacity="1">−0.4</text><text text-anchor="middle" transform="translate(545.7505350345614,15)" font-family="sans-serif" font-size="10px" fill="#000000" opacity="1">−0.2</text><text text-anchor="middle" transform="translate(705.7505350345614,15)" font-family="sans-serif" font-size="10px" fill="#000000" opacity="1">0.0</text><text text-anchor="middle" transform="translate(865.7505350345614,15)" font-family="sans-serif" font-size="10px" fill="#000000" opacity="1">0.2</text><text text-anchor="middle" transform="translate(1025.7505350345614,15)" font-family="sans-serif" font-size="10px" fill="#000000" opacity="1">0.4</text></g><g class="mark-rule role-axis-domain" pointer-events="none"><line transform="translate(0,0)" x2="1156.4362185794757" y2="0" stroke="#888" stroke-width="1" opacity="1"/></g><g class="mark-text role-axis-title" pointer-events="none"><text text-anchor="middle" transform="translate(578.2181092897379,30)" font-family="sans-serif" font-size="11px" font-weight="bold" fill="#000000" opacity="1">Axis 1 (37.56 %)</text></g></g><path class="foreground" aria-hidden="true" d="" pointer-events="none" display="none"/></g></g><g class="mark-group role-axis" role="graphics-symbol" aria-roledescription="axis" aria-label="Y-axis titled 'Axis 2 (15.92 %)' for a linear scale with values from −0.7 to 0.6"><g transform="translate(0.5,0.5)"><path class="background" aria-hidden="true" d="M0,0h0v0h0Z" pointer-events="none"/><g><g class="mark-rule role-axis-tick" pointer-events="none"><line transform="translate(0,1034)" x2="-5" y2="0" stroke="#888" stroke-width="1" opacity="1"/><line transform="translate(0,954)" x2="-5" y2="0" stroke="#888" stroke-width="1" opacity="1"/><line transform="translate(0,874)" x2="-5" y2="0" stroke="#888" stroke-width="1" opacity="1"/><line transform="translate(0,794)" x2="-5" y2="0" stroke="#888" stroke-width="1" opacity="1"/><line transform="translate(0,714)" x2="-5" y2="0" stroke="#888" stroke-width="1" opacity="1"/><line transform="translate(0,634)" x2="-5" y2="0" stroke="#888" stroke-width="1" opacity="1"/><line transform="translate(0,554)" x2="-5" y2="0" stroke="#888" stroke-width="1" opacity="1"/><line transform="translate(0,474)" x2="-5" y2="0" stroke="#888" stroke-width="1" opacity="1"/><line transform="translate(0,394)" x2="-5" y2="0" stroke="#888" stroke-width="1" opacity="1"/><line transform="translate(0,314)" x2="-5" y2="0" stroke="#888" stroke-width="1" opacity="1"/><line transform="translate(0,234)" x2="-5" y2="0" stroke="#888" stroke-width="1" opacity="1"/><line transform="translate(0,154)" x2="-5" y2="0" stroke="#888" stroke-width="1" opacity="1"/><line transform="translate(0,74)" x2="-5" y2="0" stroke="#888" stroke-width="1" opacity="1"/></g><g class="mark-text role-axis-label" pointer-events="none"><text text-anchor="end" transform="translate(-7,1036.5587300877082)" font-family="sans-serif" font-size="10px" fill="#000000" opacity="1">−0.7</text><text text-anchor="end" transform="translate(-7,956.5587300877082)" font-family="sans-serif" font-size="10px" fill="#000000" opacity="1">−0.6</text><text text-anchor="end" transform="translate(-7,876.5587300877082)" font-family="sans-serif" font-size="10px" fill="#000000" opacity="1">−0.5</text><text text-anchor="end" transform="translate(-7,796.5587300877083)" font-family="sans-serif" font-size="10px" fill="#000000" opacity="1">−0.4</text><text text-anchor="end" transform="translate(-7,716.5587300877082)" font-family="sans-serif" font-size="10px" fill="#000000" opacity="1">−0.3</text><text text-anchor="end" transform="translate(-7,636.5587300877083)" font-family="sans-serif" font-size="10px" fill="#000000" opacity="1">−0.2</text><text text-anchor="end" transform="translate(-7,556.5587300877082)" font-family="sans-serif" font-size="10px" fill="#000000" opacity="1">−0.1</text><text text-anchor="end" transform="translate(-7,476.55873008770834)" font-family="sans-serif" font-size="10px" fill="#000000" opacity="1">0.0</text><text text-anchor="end" transform="translate(-7,396.5587300877083)" font-family="sans-serif" font-size="10px" fill="#000000" opacity="1">0.1</text><text text-anchor="end" transform="translate(-7,316.5587300877082)" font-family="sans-serif" font-size="10px" fill="#000000" opacity="1">0.2</text><text text-anchor="end" transform="translate(-7,236.5587300877084)" font-family="sans-serif" font-size="10px" fill="#000000" opacity="1">0.3</text><text text-anchor="end" transform="translate(-7,156.55873008770823)" font-family="sans-serif" font-size="10px" fill="#000000" opacity="1">0.4</text><text text-anchor="end" transform="translate(-7,76.55873008770817)" font-family="sans-serif" font-size="10px" fill="#000000" opacity="1">0.5</text></g><g class="mark-rule role-axis-domain" pointer-events="none"><line transform="translate(0,1042.5047601870847)" x2="0" y2="-1042.5047601870847" stroke="#888" stroke-width="1" opacity="1"/></g><g class="mark-text role-axis-title" pointer-events="none"><text text-anchor="middle" transform="translate(-30.7412109375,521.2523800935423) rotate(-90) translate(0,-2)" font-family="sans-serif" font-size="11px" font-weight="bold" fill="#000000" opacity="1">Axis 2 (15.92 %)</text></g></g><path class="foreground" aria-hidden="true" d="" pointer-events="none" display="none"/></g></g><g class="mark-symbol role-mark" role="graphics-symbol" aria-roledescription="symbol mark container"><path transform="translate(402.3881170699275,1042.5047601870847)" d="M10,0A10,10,0,1,1,-10,0A10,10,0,1,1,10,0" fill="rgb(255,0,0)" opacity="1"/><path transform="translate(777.1300972620443,592.3162686184002)" d="M10,0A10,10,0,1,1,-10,0A10,10,0,1,1,10,0" fill="rgb(255,0,0)" opacity="1"/><path transform="translate(241.66165160185608,711.9099265286646)" d="M10,0A10,10,0,1,1,-10,0A10,10,0,1,1,10,0" fill="rgb(255,0,0)" opacity="1"/><path transform="translate(470.1588609167777,781.4510392173182)" d="M10,0A10,10,0,1,1,-10,0A10,10,0,1,1,10,0" fill="rgb(255,0,0)" opacity="1"/><path transform="translate(311.60256938447725,576.8924221945639)" d="M10,0A10,10,0,1,1,-10,0A10,10,0,1,1,10,0" fill="rgb(255,0,0)" opacity="1"/><path transform="translate(225.58644002783154,109.1424957274443)" d="M10,0A10,10,0,1,1,-10,0A10,10,0,1,1,10,0" fill="rgb(255,0,0)" opacity="1"/><path transform="translate(114.1711196388604,359.0351221777381)" d="M10,0A10,10,0,1,1,-10,0A10,10,0,1,1,10,0" fill="rgb(255,0,0)" opacity="1"/><path transform="translate(128.79634881191012,67.48047289937453)" d="M10,0A10,10,0,1,1,-10,0A10,10,0,1,1,10,0" fill="rgb(255,0,0)" opacity="1"/><path transform="translate(538.644201117041,344.9468246653133)" d="M10,0A10,10,0,1,1,-10,0A10,10,0,1,1,10,0" fill="rgb(255,0,0)" opacity="1"/><path transform="translate(465.9054361603437,643.730458770737)" d="M10,0A10,10,0,1,1,-10,0A10,10,0,1,1,10,0" fill="rgb(255,0,0)" opacity="1"/><path transform="translate(548.5685512152209,728.6124358375628)" d="M10,0A10,10,0,1,1,-10,0A10,10,0,1,1,10,0" fill="rgb(255,0,0)" opacity="1"/><path transform="translate(782.2548872968179,726.8291594439602)" d="M10,0A10,10,0,1,1,-10,0A10,10,0,1,1,10,0" fill="rgb(0,0,255)" opacity="1"/><path transform="translate(887.6069853906814,669.8688621336245)" d="M10,0A10,10,0,1,1,-10,0A10,10,0,1,1,10,0" fill="rgb(0,0,255)" opacity="1"/><path transform="translate(543.4226968987675,919.2527156294727)" d="M10,0A10,10,0,1,1,-10,0A10,10,0,1,1,10,0" fill="rgb(0,0,255)" opacity="1"/><path transform="translate(667.9076319375123,752.7067660388528)" d="M10,0A10,10,0,1,1,-10,0A10,10,0,1,1,10,0" fill="rgb(0,0,255)" opacity="1"/><path transform="translate(448.3622977416498,441.17763123253326)" d="M10,0A10,10,0,1,1,-10,0A10,10,0,1,1,10,0" fill="rgb(0,0,255)" opacity="1"/><path transform="translate(411.5724863280317,822.9704494644785)" d="M10,0A10,10,0,1,1,-10,0A10,10,0,1,1,10,0" fill="rgb(0,0,255)" opacity="1"/><path transform="translate(411.58603947895506,738.1713900205126)" d="M10,0A10,10,0,1,1,-10,0A10,10,0,1,1,10,0" fill="rgb(0,0,255)" opacity="1"/><path transform="translate(132.64980564951188,130.50761582824163)" d="M10,0A10,10,0,1,1,-10,0A10,10,0,1,1,10,0" fill="rgb(0,0,255)" opacity="1"/><path transform="translate(0,205.05192807877972)" d="M10,0A10,10,0,1,1,-10,0A10,10,0,1,1,10,0" fill="rgb(0,0,255)" opacity="1"/><path transform="translate(758.3443123355732,684.673428114877)" d="M10,0A10,10,0,1,1,-10,0A10,10,0,1,1,10,0" fill="rgb(0,0,255)" opacity="1"/><path transform="translate(699.9037411269793,889.0029111751375)" d="M10,0A10,10,0,1,1,-10,0A10,10,0,1,1,10,0" fill="rgb(0,0,255)" opacity="1"/><path transform="translate(549.5187165340461,870.9047801058147)" d="M10,0A10,10,0,1,1,-10,0A10,10,0,1,1,10,0" fill="rgb(0,0,255)" opacity="1"/><path transform="translate(269.69161517224285,55.84918717285202)" d="M10,0A10,10,0,1,1,-10,0A10,10,0,1,1,10,0" fill="rgb(0,0,255)" opacity="1"/><path transform="translate(454.15165362252884,346.6048576201787)" d="M10,0A10,10,0,1,1,-10,0A10,10,0,1,1,10,0" fill="rgb(0,0,255)" opacity="1"/><path transform="translate(448.6347158054117,190.71594716718192)" d="M10,0A10,10,0,1,1,-10,0A10,10,0,1,1,10,0" fill="rgb(0,0,255)" opacity="1"/><path transform="translate(339.7755257506144,628.5043903103808)" d="M10,0A10,10,0,1,1,-10,0A10,10,0,1,1,10,0" fill="rgb(0,0,255)" opacity="1"/><path transform="translate(82.70075695998057,0)" d="M10,0A10,10,0,1,1,-10,0A10,10,0,1,1,10,0" fill="rgb(0,0,255)" opacity="1"/><path transform="translate(1097.3039985861892,366.6812864131652)" d="M10,0A10,10,0,1,1,-10,0A10,10,0,1,1,10,0" fill="rgb(242,115,4)" opacity="1"/><path transform="translate(1107.4952175810301,374.07165189870017)" d="M10,0A10,10,0,1,1,-10,0A10,10,0,1,1,10,0" fill="rgb(242,115,4)" opacity="1"/><path transform="translate(1071.2116111778546,411.7652998097272)" d="M10,0A10,10,0,1,1,-10,0A10,10,0,1,1,10,0" fill="rgb(242,115,4)" opacity="1"/><path transform="translate(1088.453924746834,401.9167627684849)" d="M10,0A10,10,0,1,1,-10,0A10,10,0,1,1,10,0" fill="rgb(242,115,4)" opacity="1"/><path transform="translate(1156.4362185794757,348.7595768391543)" d="M10,0A10,10,0,1,1,-10,0A10,10,0,1,1,10,0" fill="rgb(242,115,4)" opacity="1"/><path transform="translate(1070.6545435070354,403.74285242806366)" d="M10,0A10,10,0,1,1,-10,0A10,10,0,1,1,10,0" fill="rgb(242,115,4)" opacity="1"/><path transform="translate(1095.682199649921,389.97236373075356)" d="M10,0A10,10,0,1,1,-10,0A10,10,0,1,1,10,0" fill="rgb(242,115,4)" opacity="1"/><path transform="translate(1069.5008505090193,388.99932316463344)" d="M10,0A10,10,0,1,1,-10,0A10,10,0,1,1,10,0" fill="rgb(242,115,4)" opacity="1"/><path transform="translate(1085.003681125453,388.2123420906283)" d="M10,0A10,10,0,1,1,-10,0A10,10,0,1,1,10,0" fill="rgb(242,115,4)" opacity="1"/><path transform="translate(1072.3849274621134,400.6789559830446)" d="M10,0A10,10,0,1,1,-10,0A10,10,0,1,1,10,0" fill="rgb(242,115,4)" opacity="1"/><path transform="translate(1086.436658419286,377.2013319875342)" d="M10,0A10,10,0,1,1,-10,0A10,10,0,1,1,10,0" fill="rgb(242,115,4)" opacity="1"/><path transform="translate(1094.4728423535337,370.54316750269936)" d="M10,0A10,10,0,1,1,-10,0A10,10,0,1,1,10,0" fill="rgb(242,115,4)" opacity="1"/><path transform="translate(1078.919415952261,381.0885423217919)" d="M10,0A10,10,0,1,1,-10,0A10,10,0,1,1,10,0" fill="rgb(242,115,4)" opacity="1"/><path transform="translate(1045.6410330016697,402.312406468357)" d="M10,0A10,10,0,1,1,-10,0A10,10,0,1,1,10,0" fill="rgb(242,115,4)" opacity="1"/><path transform="translate(1132.3017777193631,294.3171380199249)" d="M10,0A10,10,0,1,1,-10,0A10,10,0,1,1,10,0" fill="rgb(242,115,4)" opacity="1"/><path transform="translate(1071.7233006936742,412.42670795068426)" d="M10,0A10,10,0,1,1,-10,0A10,10,0,1,1,10,0" fill="rgb(242,115,4)" opacity="1"/><path transform="translate(1075.1308905057542,392.9697150168546)" d="M10,0A10,10,0,1,1,-10,0A10,10,0,1,1,10,0" fill="rgb(242,115,4)" opacity="1"/><path transform="translate(1072.1881677304516,391.72274162915085)" d="M10,0A10,10,0,1,1,-10,0A10,10,0,1,1,10,0" fill="rgb(242,115,4)" opacity="1"/><path transform="translate(1074.2321385292119,421.74614206137704)" d="M10,0A10,10,0,1,1,-10,0A10,10,0,1,1,10,0" fill="rgb(242,115,4)" opacity="1"/><path transform="translate(1118.1550225932197,380.8764897641836)" d="M10,0A10,10,0,1,1,-10,0A10,10,0,1,1,10,0" fill="rgb(242,115,4)" opacity="1"/></g><g class="mark-group role-title"><g transform="translate(562.3475038209879,-27)"><path class="background" aria-hidden="true" d="M0,0h0v0h0Z" pointer-events="none"/><g><g class="mark-text role-title-text" role="graphics-symbol" aria-roledescription="title" aria-label="Title text 'Emperor PCoA'" pointer-events="none"><text text-anchor="middle" transform="translate(0,10)" font-family="sans-serif" font-size="13px" font-weight="bold" fill="#000000" opacity="1">Emperor PCoA</text></g></g><path class="foreground" aria-hidden="true" d="" pointer-events="none" display="none"/></g></g></g><path class="foreground" aria-hidden="true" d="" display="none"/></g></g></g></svg>